<?xml version="1.0" encoding="UTF-8" standalone="no"?>
<!DOCTYPE svg PUBLIC "-//W3C//DTD SVG 1.1//EN" "http://www.w3.org/Graphics/SVG/1.1/DTD/svg11.dtd">
<!-- Created with Vectornator (http://vectornator.io/) -->
<svg height="100%" stroke-miterlimit="10" style="fill-rule:nonzero;clip-rule:evenodd;stroke-linecap:round;stroke-linejoin:round;" version="1.1" viewBox="0 0 24 24" width="100%" xml:space="preserve" xmlns="http://www.w3.org/2000/svg" xmlns:xlink="http://www.w3.org/1999/xlink">
<defs/>
<g id="Ohne-Titel">
<path d="M5 15.8569L5 9.85688C5 8.75231 5.89543 7.85688 7 7.85688L8 7.85688C9.10457 7.85688 10 8.75231 10 9.85688L10 15.8569C10 16.9615 10.8954 17.8569 12 17.8569C13.1046 17.8569 14 16.9615 14 15.8569L14 9.85688C14 8.75231 14.8954 7.85688 16 7.85688L17 7.85688C18.1046 7.85688 19 8.75231 19 9.85688L19 15.8569C19 19.7229 15.866 22.8569 12 22.8569C8.13401 22.8569 5 19.7229 5 15.8569" fill="none" opacity="1" stroke="#000000" stroke-linecap="round" stroke-linejoin="round" stroke-width="2"/>
<path d="M5.95115 11.5495L8.95115 11.5495" fill="none" opacity="1" stroke="#000000" stroke-linecap="round" stroke-linejoin="round" stroke-width="2"/>
<path d="M14.7874 11.5495L17.7874 11.5495" fill="none" opacity="1" stroke="#000000" stroke-linecap="round" stroke-linejoin="round" stroke-width="2"/>
<path d="M15.6376 2.14312L16.9372 3.44279L15.6376 4.74246" fill="none" opacity="1" stroke="#000000" stroke-linecap="round" stroke-linejoin="round" stroke-width="2"/>
<path d="M8.75082 2.14312L7.45115 3.44279L8.75082 4.74246" fill="none" opacity="1" stroke="#000000" stroke-linecap="round" stroke-linejoin="round" stroke-width="2"/>
<path d="M12.8123 2.14312L11.1877 4.74246" fill="none" opacity="0.6" stroke="#000000" stroke-dasharray="2.0" stroke-linecap="round" stroke-linejoin="round" stroke-width="2"/>
</g>
</svg>
